<mxfile host="app.diagrams.net" agent="Mozilla/5.0 (Macintosh; Intel Mac OS X 10_15_7) AppleWebKit/537.36 (KHTML, like Gecko) Chrome/127.0.0.0 Safari/537.36" version="24.7.6">
  <diagram name="第 1 页" id="G7QWfjFdJyBdl__fBxFg">
    <mxGraphModel dx="1026" dy="577" grid="1" gridSize="10" guides="1" tooltips="1" connect="1" arrows="1" fold="1" page="1" pageScale="1" pageWidth="827" pageHeight="1169" math="0" shadow="0">
      <root>
        <mxCell id="0" />
        <mxCell id="1" parent="0" />
        <mxCell id="hb5Prez9hviok3IdBNn7-4" value="" style="edgeStyle=orthogonalEdgeStyle;rounded=0;orthogonalLoop=1;jettySize=auto;html=1;" edge="1" parent="1" source="hb5Prez9hviok3IdBNn7-2" target="hb5Prez9hviok3IdBNn7-3">
          <mxGeometry relative="1" as="geometry" />
        </mxCell>
        <mxCell id="hb5Prez9hviok3IdBNn7-2" value="" style="rounded=0;whiteSpace=wrap;html=1;" vertex="1" parent="1">
          <mxGeometry x="120" y="510" width="120" height="70" as="geometry" />
        </mxCell>
        <mxCell id="hb5Prez9hviok3IdBNn7-13" value="" style="edgeStyle=orthogonalEdgeStyle;rounded=0;orthogonalLoop=1;jettySize=auto;html=1;" edge="1" parent="1" source="hb5Prez9hviok3IdBNn7-3">
          <mxGeometry relative="1" as="geometry">
            <mxPoint x="180" y="820" as="targetPoint" />
          </mxGeometry>
        </mxCell>
        <mxCell id="hb5Prez9hviok3IdBNn7-3" value="实例1" style="ellipse;whiteSpace=wrap;html=1;rounded=0;" vertex="1" parent="1">
          <mxGeometry x="140" y="660" width="80" height="80" as="geometry" />
        </mxCell>
        <mxCell id="hb5Prez9hviok3IdBNn7-5" value="实例2" style="ellipse;whiteSpace=wrap;html=1;rounded=0;" vertex="1" parent="1">
          <mxGeometry x="330" y="660" width="80" height="80" as="geometry" />
        </mxCell>
        <mxCell id="hb5Prez9hviok3IdBNn7-7" value="" style="edgeStyle=orthogonalEdgeStyle;rounded=0;orthogonalLoop=1;jettySize=auto;html=1;" edge="1" parent="1" source="hb5Prez9hviok3IdBNn7-6" target="hb5Prez9hviok3IdBNn7-5">
          <mxGeometry relative="1" as="geometry" />
        </mxCell>
        <mxCell id="hb5Prez9hviok3IdBNn7-6" value="" style="rounded=0;whiteSpace=wrap;html=1;" vertex="1" parent="1">
          <mxGeometry x="310" y="510" width="120" height="70" as="geometry" />
        </mxCell>
        <mxCell id="hb5Prez9hviok3IdBNn7-8" value="实例3" style="ellipse;whiteSpace=wrap;html=1;rounded=0;" vertex="1" parent="1">
          <mxGeometry x="510" y="660" width="80" height="80" as="geometry" />
        </mxCell>
        <mxCell id="hb5Prez9hviok3IdBNn7-10" value="" style="edgeStyle=orthogonalEdgeStyle;rounded=0;orthogonalLoop=1;jettySize=auto;html=1;" edge="1" parent="1" source="hb5Prez9hviok3IdBNn7-9" target="hb5Prez9hviok3IdBNn7-8">
          <mxGeometry relative="1" as="geometry" />
        </mxCell>
        <mxCell id="hb5Prez9hviok3IdBNn7-9" value="" style="rounded=0;whiteSpace=wrap;html=1;" vertex="1" parent="1">
          <mxGeometry x="490" y="510" width="120" height="70" as="geometry" />
        </mxCell>
        <mxCell id="hb5Prez9hviok3IdBNn7-11" value="" style="rounded=0;whiteSpace=wrap;html=1;" vertex="1" parent="1">
          <mxGeometry x="120" y="820" width="120" height="70" as="geometry" />
        </mxCell>
        <mxCell id="hb5Prez9hviok3IdBNn7-15" value="A" style="rounded=0;whiteSpace=wrap;html=1;" vertex="1" parent="1">
          <mxGeometry x="110" y="280" width="120" height="60" as="geometry" />
        </mxCell>
        <mxCell id="hb5Prez9hviok3IdBNn7-16" value="A" style="rounded=0;whiteSpace=wrap;html=1;" vertex="1" parent="1">
          <mxGeometry x="490" y="280" width="120" height="60" as="geometry" />
        </mxCell>
        <mxCell id="hb5Prez9hviok3IdBNn7-20" value="实例2" style="ellipse;whiteSpace=wrap;html=1;rounded=0;" vertex="1" parent="1">
          <mxGeometry x="510" y="390" width="80" height="80" as="geometry" />
        </mxCell>
        <mxCell id="hb5Prez9hviok3IdBNn7-21" value="实例1" style="ellipse;whiteSpace=wrap;html=1;rounded=0;" vertex="1" parent="1">
          <mxGeometry x="130" y="380" width="80" height="80" as="geometry" />
        </mxCell>
      </root>
    </mxGraphModel>
  </diagram>
</mxfile>
